<svg width="130pt" height="52pt" version="1.0" viewBox="0 0 130 52" xmlns="http://www.w3.org/2000/svg">
    <g transform="translate(0 52) scale(.1 -.1)" fill="#00333c" stroke="none"><path d="m67 463c-25-40-10-394 17-422 26-25 46-6 46 45 0 39 2 45 14 35 18-15 74-17 87-4 19 19 1 51-25 46-16-3-34 4-57 26-33 29-33 31-19 58 8 16 36 38 63 52 26 13 47 29 47 37 0 18-41 18-85 0l-34-15-3 72c-3 65-5 72-25 75-11 2-23-1-26-5z"/><path d="m861 366c-8-10-8-21-1-40 5-15 10-76 10-136 0-113 6-127 43-108 9 5 17 19 17 32 0 20 8 26 44 35 59 15 86 49 86 111 0 63-23 92-72 92-20 0-42-3-48-7-7-4-18 2-26 14-17 24-37 27-53 7zm148-77c12-22 12-30-4-62-14-30-49-57-59-45-2 1-6 29-10 61-6 53-5 58 16 67 31 12 40 8 57-21z"/><path d="m320 338c-41-28-55-50-47-72 10-24 39-19 63 11 26 33 54 26 54-15 0-25-3-28-27-25-70 11-120-44-102-111 14-50 42-62 117-50l57 9 9 73c19 169-32 242-124 180zm53-143c19-8 7-79-14-83-17-3-49 22-49 39 0 9 36 49 44 49 2 0 11-2 19-5z"/><path d="m491 334c-39-50-40-148-1-212 18-29 25-33 57-30 50 4 75 41 81 118 5 68-14 110-50 110-12 0-18 3-15 7 10 10-13 33-33 33-10 0-28-12-39-26zm103-114c-10-60-15-70-34-70-22 0-30 19-30 71 0 28 4 37 13 33 8-3 20 2 27 11 19 23 31 0 24-45z"/><path d="m713 340c-36-21-57-55-49-76 9-22 38-16 62 13 26 33 54 26 54-14 0-27-2-28-46-28-36-1-50-6-65-24-26-32-25-95 2-122 19-19 29-21 82-15 34 3 65 10 69 14 15 15 21 177 9 215-20 59-61 72-118 37zm49-145c9-4 13-17 10-40-5-40-14-49-42-40-26 8-27 60-2 74 21 13 18 12 34 6z"/><path d="m1111 338c-55-58-31-234 33-246 39-8 67 9 86 51 34 74 20 168-27 175-11 2-23 12-26 23-7 26-41 24-66-3zm99-97c0-50-15-91-34-91-20 0-25 10-33 65-6 45-5 47 16 40 14-4 23-2 27 9 11 29 24 16 24-23z"/>
    </g>
</svg>